<?xml version="1.0" encoding="UTF-8"?><svg xmlns="http://www.w3.org/2000/svg" viewBox="0 0 3000 612"><defs><style>.cls-1{fill:#39c5ef;}.cls-2{fill:#83af33;}.cls-3{fill:#2fb77e;}.cls-4{fill:#f58020;}.cls-5{fill:none;stroke:#58595b;stroke-miterlimit:10;stroke-width:10px;}.cls-6{fill:#e0225b;}.cls-7{fill:#00a4ab;}.cls-8{fill:#ebb22d;}.cls-9{fill:#58595b;}</style></defs><g id="Layer_1"><g><polygon class="cls-4" points="1642.86 113.45 1471.35 113.45 1471.35 199.49 1556.79 199.49 1556.79 284.96 1642.86 284.96 1642.86 113.45"/><polygon class="cls-2" points="1371.03 213.76 1371.03 298.38 1457.9 298.38 1457.9 385.27 1542.54 385.27 1542.54 213.76 1371.03 213.76"/><rect class="cls-7" x="1271.7" y="312.74" width="171.15" height="171.15"/><g><g><path d="M1248.51,109.76c-85.57,0-89.21,38.34-89.21,92.43v132.78h20.18V202.2c0-40.77-1.61-73.46,69.02-73.46,7.56,0,14.29,.4,20.33,1.11v-19.22c-6.23-.55-12.96-.86-20.33-.86"/><path d="M250.46,248.61V114.2h20.59V249.01c0,38.75-.4,71.45,70.63,71.45s69.02-32.7,69.02-73.47V114.2h20.18V246.98c0,54.09-3.64,92.44-89.21,92.44s-91.21-38.35-91.21-90.82"/><path d="M645.44,200.57v134.41h-20.58V200.17c0-38.75,.4-71.44-70.63-71.44s-69.02,32.69-69.02,73.46v132.78h-20.18V202.2c0-54.09,3.63-92.43,89.2-92.43s91.21,38.34,91.21,90.81"/><rect x="682.89" y="114.61" width="19.76" height="220.37"/><path d="M739.65,114.61h103.16c51.16,0,74.36,25.43,74.36,70.63s-22.9,73.16-74.64,73.16h-83.13v76.57h-19.76V114.61Zm103.46,123.98c35.64,0,53.36-17.37,53.36-52.47s-19.11-51.74-54.24-51.74h-82.82v104.21h83.7Z"/><path d="M940.17,223.99c0-64.98,18.58-115.04,101.74-115.04s88.78,57.71,88.38,118.66h-170.33c.4,53.69,13.71,93.64,83.54,93.64,37.15,0,54.09-10.1,72.25-23.41l11.3,14.93c-20.18,14.93-43.99,26.64-83.55,26.64-87.17,0-103.33-50.46-103.33-115.44m20.19-14.94h150.14c-2.02-43.99-4.84-81.52-69.03-81.52s-78.69,33.5-81.12,81.52"/><path d="M126.53,382.81c85.56,0,89.2-38.35,89.2-92.43V114.21h-20.18v176.17c0,40.75,1.61,73.46-69.02,73.46-2.67,0-5.2-.07-7.68-.17v19.03c2.48,.07,5.03,.11,7.68,.11"/></g><g><path d="M683.43,419.9c0-25.55,15.05-37.41,34.67-37.41,12.62,0,22.5,5.32,28.28,15.21,5.78-9.88,15.66-15.21,28.28-15.21,19.62,0,34.67,11.86,34.67,37.41v64.01h-19.46v-64.01c0-13.69-7.3-19.31-16.88-19.31s-16.88,5.78-16.88,19.31v64.01h-19.46v-64.01c0-13.53-7.3-19.31-16.88-19.31s-16.88,5.63-16.88,19.31v64.14h-19.46v-64.14Z"/><path d="M868.71,461.71h18.25c.15,5.02,4.56,8.36,13.38,8.36,9.27,0,13.23-3.8,13.23-8.36,0-5.78-6.69-6.54-14.75-7.6-11.56-1.52-28.59-3.5-28.59-21.9,0-15.36,11.71-25.39,29.8-25.39s29.65,10.34,30.11,23.57h-17.94c-.46-4.56-4.71-7.75-11.86-7.75-7.91,0-11.86,3.8-11.86,8.21,0,5.78,6.84,6.69,14.9,7.75,10.03,1.37,28.43,3.34,28.43,22.05,0,15.21-12.32,25.24-31.47,25.24s-31.17-10.19-31.63-24.18Z"/><polygon points="1179.42 399.52 1179.42 384.16 1130.3 383.96 1130.3 399.33 1145.04 399.33 1145.04 468.5 1130.3 468.5 1130.3 483.87 1179.42 484.06 1179.42 468.7 1164.5 468.5 1164.5 399.33 1179.42 399.52"/><g><path d="M830.99,408.8h18.09v75.12h-18.09v-75.12Z"/><rect x="830.98" y="384.11" width="18.1" height="17.03"/></g><path d="M982.56,469.01c-7.42-.02-12.57-3.98-12.57-13.98v-30.14h17.81v-16.17h-17.81v-24.15h-18.1v24.15h-9.66v16.17h9.66v30.14c0,20.81,12.44,30.84,30.66,30.86h5.42v-16.88h-5.42Z"/><path d="M1071.97,382.64c-27.2,0-39.63,15.96-39.63,41.49v59.88h19.45v-30.45h39.99v30.45h19.45v-59.88c0-25.53-12.06-41.49-39.27-41.49Zm-20.17,53.06v-11.57c0-14.74,4.97-23.41,20.17-23.41s19.81,8.66,19.81,23.41v11.57h-39.99Z"/></g><g><path d="M250.3,462.59c0-14.5,10.81-21.87,21.1-21.87,6.09,0,11.15,2.57,14.16,7.29v-24.7h10.21v39.37c0,13.72-9.27,22.64-22.56,22.64s-22.9-9.27-22.9-22.73Zm35.26,.43c0-7.46-4.98-12.78-12.44-12.78s-12.52,5.32-12.52,12.78,5.06,12.78,12.52,12.78,12.44-5.32,12.44-12.78Z"/><path d="M307.58,459.59c0-12.78,7.55-18.87,18.61-18.87s18.53,6.09,18.53,19.04v.26h-10.12v-.43c0-6.86-3.43-9.35-8.41-9.35s-8.41,2.49-8.41,9.35v24.62h-10.21v-24.62Z"/><path d="M375.83,441.84h11.15l11.75,33.02,11.75-33.02h10.89l-16.64,42.37h-12.27l-16.64-42.37Z"/><path d="M426.77,463.02c0-12.87,9.43-22.3,22.82-22.3s22.65,9.43,22.65,22.3v3.6h-34.74c1.37,6.17,6.09,9.43,12.09,9.43,4.55,0,7.89-1.28,10.04-4.03h10.89c-3.17,8.06-10.89,13.29-20.93,13.29-13.38,0-22.82-9.43-22.82-22.3Zm34.65-4.55c-1.63-5.66-6.26-8.49-11.84-8.49s-10.21,2.92-11.84,8.49h23.67Z"/><path d="M482.34,462.17c0-14.16,8.41-21.44,20.93-21.44s20.93,7.2,20.93,21.44v22.04h-10.21v-22.04c0-8.07-4.29-11.93-10.72-11.93s-10.72,3.86-10.72,11.93v22.04h-10.21v-22.04Z"/><path d="M555.07,462.68v-39.37h10.21v24.7c3-4.72,8.06-7.29,14.15-7.29,10.3,0,21.1,7.37,21.1,21.87,0,13.47-9.43,22.73-22.91,22.73s-22.56-8.92-22.56-22.64Zm35.17,.34c0-7.46-5.06-12.78-12.52-12.78s-12.44,5.32-12.44,12.78,4.97,12.78,12.44,12.78,12.52-5.32,12.52-12.78Z"/><path d="M610.98,488.84h10.21c1.71,3.94,5.06,5.75,10.21,5.75,6.95,0,10.9-3.34,10.9-11.58v-5.32c-2.58,4.63-7.04,7.12-12.61,7.12-9.78,0-19.05-6.35-19.05-21.44v-21.53h10.21v21.53c0,8.06,4.29,11.93,10.72,11.93s10.72-4.03,10.72-11.93v-21.53h10.21v40.92c0,14.75-9.35,20.67-21.1,20.67-9.86,0-18.02-4.55-20.41-14.58Z"/><g><path d="M355.09,441.84h10.21v42.37h-10.21v-42.37Z"/><rect x="355.03" y="425.93" width="10.26" height="10.26"/></g></g></g><g><path d="M1462.79,483.89v-13.98h-4.99v-2.85h13.38v2.85h-4.98v13.98h-3.4Z"/><path d="M1473.31,483.89v-16.83h5.09l3.05,11.48,3.02-11.48h5.1v16.83h-3.16v-13.25l-3.34,13.25h-3.27l-3.33-13.25v13.25h-3.16Z"/></g><g><path d="M1199.83,483.89v-13.98h-4.99v-2.85h13.38v2.85h-4.98v13.98h-3.4Z"/><path d="M1210.36,483.89v-16.83h5.09l3.05,11.48,3.02-11.48h5.1v16.83h-3.16v-13.25l-3.34,13.25h-3.27l-3.33-13.25v13.25h-3.16Z"/></g></g><g><g><path class="cls-6" d="M2546.71,333.72c0,24.57-20.07,44.63-44.63,44.63s-44.63-20.07-44.63-44.63,20.07-44.63,44.63-44.63h44.63v44.63Z"/><path class="cls-6" d="M2569.2,333.72c0-24.57,20.07-44.63,44.63-44.63s44.63,20.07,44.63,44.63v111.76c0,24.57-20.07,44.63-44.63,44.63s-44.63-20.07-44.63-44.63v-111.76Z"/></g><g><path class="cls-1" d="M2613.84,154.49c-24.57,0-44.63-20.07-44.63-44.63s20.07-44.63,44.63-44.63,44.63,20.07,44.63,44.63v44.63h-44.63Z"/><path class="cls-1" d="M2613.84,176.98c24.57,0,44.63,20.07,44.63,44.63s-20.07,44.63-44.63,44.63h-111.76c-24.57,0-44.63-20.07-44.63-44.63s20.07-44.63,44.63-44.63h111.76Z"/></g><g><path class="cls-3" d="M2793.07,221.61c0-24.57,20.07-44.63,44.63-44.63s44.63,20.07,44.63,44.63-20.07,44.63-44.63,44.63h-44.63v-44.63Z"/><path class="cls-3" d="M2770.58,221.61c0,24.57-20.07,44.63-44.63,44.63s-44.63-20.07-44.63-44.63V109.86c0-24.57,20.07-44.63,44.63-44.63s44.63,20.07,44.63,44.63v111.76Z"/></g><g><path class="cls-8" d="M2725.94,400.84c24.57,0,44.63,20.07,44.63,44.63s-20.07,44.63-44.63,44.63-44.63-20.07-44.63-44.63v-44.63h44.63Z"/><path class="cls-8" d="M2725.94,378.35c-24.57,0-44.63-20.07-44.63-44.63s20.07-44.63,44.63-44.63h111.76c24.57,0,44.63,20.07,44.63,44.63s-20.07,44.63-44.63,44.63h-111.76Z"/></g></g></g><g id="Layer_2"><g><line class="cls-5" x1="1739.22" y1="207.44" x2="2301.51" y2="207.44"/><polygon class="cls-9" points="2372.11 207.44 2272.62 248.1 2296.23 207.44 2272.62 166.8 2372.11 207.44"/></g><g><line class="cls-5" x1="2372.11" y1="371" x2="1809.83" y2="371"/><polygon class="cls-9" points="1739.22 371 1838.71 330.35 1815.11 371 1838.71 411.64 1739.22 371"/></g></g></svg>